<?xml version="1.0" encoding="UTF-8"?>
<svg xmlns="http://www.w3.org/2000/svg" 
     viewBox="0 0 280 280" 
     width="280" height="280"
     role="img" aria-label="SGE Logo">
  <title>SGE</title>
  <g transform="translate(9.00, 95.50)">
    <path 
      fill="#1B3A6B" 
      fill-rule="evenodd" 
      d="M 181.00 53.00 L 181.00 54.88 L 182.00 55.00 L 182.00 57.88 L 183.00 58.00 L 183.00 60.88 L 184.00 61.00 L 184.00 62.88 L 185.00 63.00 L 185.00 64.88 L 186.00 65.00 L 186.00 66.88 L 187.00 67.00 L 187.00 67.88 L 188.00 68.00 L 188.00 69.88 L 189.00 70.00 L 189.00 70.88 L 190.00 71.00 L 190.00 71.88 L 191.00 72.00 L 191.00 72.88 L 192.00 73.00 L 192.00 73.88 L 193.00 74.00 L 193.00 74.88 L 194.00 75.00 L 194.00 75.88 L 195.00 76.00 L 195.00 76.88 L 197.00 77.00 L 197.00 77.88 L 198.00 78.00 L 198.00 78.88 L 200.00 79.00 L 200.00 79.88 L 202.00 80.00 L 202.00 80.88 L 203.00 81.00 L 203.00 81.88 L 206.00 82.00 L 206.00 82.88 L 209.00 83.00 L 209.00 83.88 L 213.00 84.00 L 213.00 84.88 L 218.00 85.00 L 218.00 85.88 L 255.88 85.88 L 256.00 84.88 L 257.88 84.88 L 258.00 83.88 L 258.88 83.88 L 258.88 78.00 L 257.88 77.88 L 257.88 77.00 L 255.88 76.88 L 255.88 76.00 L 213.88 75.88 L 213.88 75.00 L 210.88 74.88 L 210.88 74.00 L 208.88 73.88 L 208.88 73.00 L 206.88 72.88 L 206.88 72.00 L 204.88 71.88 L 204.88 71.00 L 202.88 70.88 L 202.88 70.00 L 201.88 69.88 L 201.88 69.00 L 199.88 68.88 L 199.88 68.00 L 198.88 67.88 L 198.88 67.00 L 197.88 66.88 L 197.88 66.00 L 196.88 65.88 L 196.88 65.00 L 195.88 64.88 L 195.88 63.00 L 194.88 62.88 L 194.88 62.00 L 193.88 61.88 L 193.88 60.00 L 192.88 59.88 L 192.88 58.00 L 191.88 57.88 L 191.88 55.00 L 190.88 54.88 L 190.88 53.00 Z M 165.88 18.00 L 164.88 17.88 L 164.88 17.00 L 163.88 16.88 L 163.88 16.00 L 162.88 15.88 L 162.88 15.00 L 161.88 14.88 L 161.88 14.00 L 160.88 13.88 L 160.88 13.00 L 159.88 12.88 L 159.88 12.00 L 158.88 11.88 L 158.88 11.00 L 156.88 10.88 L 156.88 10.00 L 154.88 9.88 L 154.88 9.00 L 152.88 8.88 L 152.88 8.00 L 150.88 7.88 L 150.88 7.00 L 147.88 6.88 L 147.88 6.00 L 143.88 5.88 L 143.88 5.00 L 126.00 5.00 L 125.88 6.00 L 122.00 6.00 L 121.88 7.00 L 120.00 7.00 L 119.88 8.00 L 117.00 8.00 L 116.88 9.00 L 115.00 9.00 L 114.88 10.00 L 113.00 10.00 L 112.88 11.00 L 112.00 11.00 L 111.88 12.00 L 110.00 12.00 L 109.88 13.00 L 109.00 13.00 L 108.88 14.00 L 108.00 14.00 L 107.88 15.00 L 107.00 15.00 L 106.88 16.00 L 106.00 16.00 L 105.88 17.00 L 105.00 17.00 L 104.88 18.00 L 104.00 18.00 L 103.88 19.00 L 103.00 19.00 L 102.88 20.00 L 102.00 20.00 L 101.88 22.00 L 101.00 22.00 L 100.88 23.00 L 100.00 23.00 L 99.88 25.00 L 99.00 25.00 L 98.88 26.00 L 98.00 26.00 L 97.88 28.00 L 97.00 28.00 L 96.88 31.00 L 96.00 31.00 L 95.88 34.00 L 95.00 34.00 L 94.88 37.00 L 94.00 37.00 L 93.88 41.00 L 93.00 41.00 L 92.88 44.00 L 92.00 44.00 L 91.88 47.00 L 91.00 47.00 L 90.88 50.00 L 90.00 50.00 L 89.88 52.00 L 89.00 52.00 L 88.88 55.00 L 88.00 55.00 L 87.88 56.00 L 87.00 56.00 L 86.88 58.00 L 86.00 58.00 L 85.88 60.00 L 85.00 60.00 L 84.88 61.00 L 84.00 61.00 L 83.88 63.00 L 83.00 63.00 L 82.88 64.00 L 82.00 64.00 L 81.88 65.00 L 81.00 65.00 L 80.88 66.00 L 80.00 66.00 L 79.88 67.00 L 79.00 67.00 L 78.88 68.00 L 78.00 68.00 L 77.88 69.00 L 77.00 69.00 L 76.88 70.00 L 75.00 70.00 L 74.88 71.00 L 74.00 71.00 L 73.88 72.00 L 72.00 72.00 L 71.88 73.00 L 70.00 73.00 L 69.88 74.00 L 68.00 74.00 L 67.88 75.00 L 65.00 75.00 L 64.88 76.00 L 7.00 76.00 L 6.88 77.00 L 5.00 77.00 L 4.88 79.00 L 4.00 79.00 L 4.00 82.88 L 5.00 83.00 L 5.00 84.88 L 8.00 85.00 L 8.00 85.88 L 59.88 85.88 L 60.00 84.88 L 65.88 84.88 L 66.00 83.88 L 69.88 83.88 L 70.00 82.88 L 71.88 82.88 L 72.00 81.88 L 74.88 81.88 L 75.00 80.88 L 76.88 80.88 L 77.00 79.88 L 78.88 79.88 L 79.00 78.88 L 79.88 78.88 L 80.00 77.88 L 81.88 77.88 L 82.00 76.88 L 82.88 76.88 L 83.00 75.88 L 83.88 75.88 L 84.00 74.88 L 84.88 74.88 L 85.00 73.88 L 85.88 73.88 L 86.00 72.88 L 86.88 72.88 L 87.00 71.88 L 87.88 71.88 L 88.00 70.88 L 88.88 70.88 L 89.00 69.88 L 89.88 69.88 L 90.00 68.88 L 90.88 68.88 L 91.00 66.88 L 91.88 66.88 L 92.00 65.88 L 92.88 65.88 L 93.00 64.88 L 93.88 64.88 L 94.00 62.88 L 94.88 62.88 L 95.00 60.88 L 95.88 60.88 L 96.00 58.88 L 96.88 58.88 L 97.00 56.88 L 97.88 56.88 L 98.00 54.88 L 98.88 54.88 L 99.00 51.88 L 99.88 51.88 L 100.00 48.88 L 100.88 48.88 L 101.00 46.88 L 101.88 46.88 L 102.00 42.88 L 102.88 42.88 L 103.00 39.88 L 103.88 39.88 L 104.00 35.88 L 104.88 35.88 L 105.00 32.88 L 105.88 32.88 L 106.00 30.88 L 106.88 30.88 L 107.00 28.88 L 107.88 28.88 L 108.00 27.88 L 108.88 27.88 L 109.00 25.88 L 109.88 25.88 L 110.00 24.88 L 110.88 24.88 L 111.00 23.88 L 111.88 23.88 L 112.00 22.88 L 112.88 22.88 L 113.00 21.88 L 113.88 21.88 L 114.00 20.88 L 114.88 20.88 L 115.00 19.88 L 116.88 19.88 L 117.00 18.88 L 117.88 18.88 L 118.00 17.88 L 119.88 17.88 L 120.00 16.88 L 121.88 16.88 L 122.00 15.88 L 124.88 15.88 L 125.00 14.88 L 128.88 14.88 L 129.00 13.88 L 142.00 14.00 L 142.00 14.88 L 146.00 15.00 L 146.00 15.88 L 148.00 16.00 L 148.00 16.88 L 150.00 17.00 L 150.00 17.88 L 152.00 18.00 L 152.00 18.88 L 154.00 19.00 L 154.00 19.88 L 155.00 20.00 L 155.00 20.88 L 156.00 21.00 L 156.00 21.88 L 157.00 22.00 L 157.00 22.88 L 159.00 23.00 L 159.00 23.88 L 160.00 24.00 L 160.00 24.88 L 163.88 24.88 L 164.00 23.88 L 164.88 23.88 L 165.00 22.88 L 165.88 22.88 Z M 258.88 21.00 L 257.88 20.88 L 257.88 18.00 L 256.88 17.88 L 256.88 16.00 L 255.88 15.88 L 255.88 15.00 L 254.88 14.88 L 254.88 13.00 L 253.88 12.88 L 253.88 12.00 L 252.88 11.88 L 252.88 11.00 L 251.88 10.88 L 251.88 10.00 L 250.88 9.88 L 250.88 9.00 L 249.88 8.88 L 249.88 8.00 L 247.88 7.88 L 247.88 7.00 L 245.88 6.88 L 245.88 6.00 L 242.88 5.88 L 242.88 5.00 L 231.88 4.88 L 231.88 4.00 L 223.00 4.00 L 222.88 5.00 L 213.00 5.00 L 212.88 6.00 L 209.00 6.00 L 208.88 7.00 L 206.00 7.00 L 205.88 8.00 L 204.00 8.00 L 203.88 9.00 L 202.00 9.00 L 201.88 10.00 L 200.00 10.00 L 199.88 11.00 L 199.00 11.00 L 198.88 12.00 L 197.00 12.00 L 196.88 13.00 L 196.00 13.00 L 195.88 14.00 L 195.00 14.00 L 194.88 15.00 L 193.00 15.00 L 192.88 16.00 L 192.00 16.00 L 191.88 17.00 L 191.00 17.00 L 190.88 19.00 L 190.00 19.00 L 189.88 20.00 L 189.00 20.00 L 188.88 21.00 L 188.00 21.00 L 187.88 23.00 L 187.00 23.00 L 186.88 24.00 L 186.00 24.00 L 185.88 26.00 L 185.00 26.00 L 184.88 28.00 L 184.00 28.00 L 183.88 29.00 L 183.00 29.00 L 182.88 32.00 L 182.00 32.00 L 181.88 36.00 L 181.00 36.00 L 181.00 36.88 L 190.88 36.88 L 191.00 34.88 L 191.88 34.88 L 192.00 32.88 L 192.88 32.88 L 193.00 29.88 L 193.88 29.88 L 194.00 28.88 L 194.88 28.88 L 195.00 26.88 L 195.88 26.88 L 196.00 25.88 L 196.88 25.88 L 197.00 24.88 L 197.88 24.88 L 198.00 23.88 L 198.88 23.88 L 199.00 22.88 L 199.88 22.88 L 200.00 21.88 L 200.88 21.88 L 201.00 20.88 L 201.88 20.88 L 202.00 19.88 L 202.88 19.88 L 203.00 18.88 L 204.88 18.88 L 205.00 17.88 L 206.88 17.88 L 207.00 16.88 L 208.88 16.88 L 209.00 15.88 L 211.88 15.88 L 212.00 14.88 L 214.88 14.88 L 215.00 13.88 L 241.00 14.00 L 241.00 14.88 L 243.00 15.00 L 243.00 15.88 L 245.00 16.00 L 245.00 16.88 L 246.00 17.00 L 246.00 17.88 L 247.00 18.00 L 247.00 19.88 L 248.00 20.00 L 248.00 20.88 L 249.00 21.00 L 249.00 23.88 L 250.00 24.00 L 249.88 31.00 L 249.00 31.00 L 248.88 33.00 L 248.00 33.00 L 247.88 35.00 L 247.00 35.00 L 246.88 36.00 L 246.00 36.00 L 245.88 37.00 L 245.00 37.00 L 244.88 38.00 L 244.00 38.00 L 243.88 39.00 L 242.00 39.00 L 241.88 40.00 L 135.00 40.00 L 134.88 41.00 L 132.00 41.00 L 131.88 43.00 L 131.00 43.00 L 131.00 46.88 L 132.00 47.00 L 132.00 48.88 L 134.00 49.00 L 134.00 49.88 L 166.00 50.00 L 165.88 54.00 L 165.00 54.00 L 164.88 57.00 L 164.00 57.00 L 163.88 59.00 L 163.00 59.00 L 162.88 61.00 L 162.00 61.00 L 161.88 63.00 L 161.00 63.00 L 160.88 64.00 L 160.00 64.00 L 159.88 65.00 L 159.00 65.00 L 158.88 66.00 L 158.00 66.00 L 157.88 67.00 L 157.00 67.00 L 156.88 68.00 L 156.00 68.00 L 155.88 69.00 L 155.00 69.00 L 154.88 70.00 L 154.00 70.00 L 153.88 71.00 L 152.00 71.00 L 151.88 72.00 L 150.00 72.00 L 149.88 73.00 L 148.00 73.00 L 147.88 74.00 L 146.00 74.00 L 145.88 75.00 L 143.00 75.00 L 142.88 76.00 L 127.88 75.88 L 127.88 75.00 L 123.88 74.88 L 123.88 74.00 L 121.88 73.88 L 121.88 73.00 L 119.88 72.88 L 119.88 72.00 L 117.88 71.88 L 117.88 71.00 L 116.88 70.88 L 116.88 70.00 L 114.88 69.88 L 114.88 69.00 L 113.88 68.88 L 113.88 68.00 L 112.88 67.88 L 112.88 67.00 L 111.88 66.88 L 111.88 66.00 L 110.88 65.88 L 110.88 65.00 L 109.88 64.88 L 109.88 64.00 L 108.88 63.88 L 108.88 62.00 L 107.88 61.88 L 107.88 61.00 L 106.88 60.88 L 106.88 59.00 L 105.88 58.88 L 105.88 57.00 L 104.88 56.88 L 104.88 54.00 L 103.88 53.88 L 103.88 51.00 L 103.00 51.00 L 102.88 54.00 L 102.00 54.00 L 101.88 56.00 L 101.00 56.00 L 100.88 58.00 L 100.00 58.00 L 99.88 60.00 L 99.00 60.00 L 98.88 62.00 L 98.00 62.00 L 98.00 63.88 L 99.00 64.00 L 99.00 64.88 L 100.00 65.00 L 100.00 66.88 L 101.00 67.00 L 101.00 67.88 L 102.00 68.00 L 102.00 69.88 L 103.00 70.00 L 103.00 70.88 L 104.00 71.00 L 104.00 71.88 L 105.00 72.00 L 105.00 72.88 L 106.00 73.00 L 106.00 73.88 L 107.00 74.00 L 107.00 74.88 L 108.00 75.00 L 108.00 75.88 L 109.00 76.00 L 109.00 76.88 L 110.00 77.00 L 110.00 77.88 L 112.00 78.00 L 112.00 78.88 L 113.00 79.00 L 113.00 79.88 L 115.00 80.00 L 115.00 80.88 L 117.00 81.00 L 117.00 81.88 L 120.00 82.00 L 120.00 82.88 L 122.00 83.00 L 122.00 83.88 L 126.00 84.00 L 126.00 84.88 L 131.00 85.00 L 131.00 85.88 L 138.88 85.88 L 139.00 84.88 L 144.88 84.88 L 145.00 83.88 L 147.88 83.88 L 148.00 82.88 L 150.88 82.88 L 151.00 81.88 L 152.88 81.88 L 153.00 80.88 L 154.88 80.88 L 155.00 79.88 L 156.88 79.88 L 157.00 78.88 L 158.88 78.88 L 159.00 77.88 L 159.88 77.88 L 160.00 76.88 L 160.88 76.88 L 161.00 75.88 L 161.88 75.88 L 162.00 74.88 L 163.88 74.88 L 164.00 73.88 L 164.88 73.88 L 165.00 71.88 L 165.88 71.88 L 166.00 70.88 L 166.88 70.88 L 167.00 69.88 L 167.88 69.88 L 168.00 68.88 L 168.88 68.88 L 169.00 66.88 L 169.88 66.88 L 170.00 65.88 L 170.88 65.88 L 171.00 63.88 L 171.88 63.88 L 172.00 61.88 L 172.88 61.88 L 173.00 59.88 L 173.88 59.88 L 174.00 56.88 L 174.88 56.88 L 175.00 52.88 L 175.88 52.88 L 176.00 49.88 L 239.88 49.88 L 240.00 48.88 L 243.88 48.88 L 244.00 47.88 L 246.88 47.88 L 247.00 46.88 L 248.88 46.88 L 249.00 45.88 L 249.88 45.88 L 250.00 44.88 L 250.88 44.88 L 251.00 43.88 L 251.88 43.88 L 252.00 42.88 L 252.88 42.88 L 253.00 41.88 L 253.88 41.88 L 254.00 40.88 L 254.88 40.88 L 255.00 39.88 L 255.88 39.88 L 256.00 37.88 L 256.88 37.88 L 257.00 35.88 L 257.88 35.88 L 258.00 32.88 L 258.88 32.88 Z M 116.88 4.00 L 116.00 4.00 L 115.88 5.00 L 113.88 4.88 L 113.88 4.00 L 113.00 4.00 L 112.88 5.00 L 20.00 5.00 L 19.88 6.00 L 17.00 6.00 L 16.88 7.00 L 15.00 7.00 L 14.88 8.00 L 13.00 8.00 L 12.88 9.00 L 12.00 9.00 L 11.88 10.00 L 11.00 10.00 L 10.88 11.00 L 10.00 11.00 L 9.88 12.00 L 9.00 12.00 L 8.88 13.00 L 8.00 13.00 L 7.88 15.00 L 7.00 15.00 L 6.88 17.00 L 6.00 17.00 L 5.88 19.00 L 5.00 19.00 L 4.88 22.00 L 4.00 22.00 L 4.00 31.88 L 5.00 32.00 L 5.00 35.88 L 6.00 36.00 L 6.00 37.88 L 7.00 38.00 L 7.00 39.88 L 8.00 40.00 L 8.00 40.88 L 9.00 41.00 L 9.00 41.88 L 10.00 42.00 L 10.00 42.88 L 11.00 43.00 L 11.00 43.88 L 12.00 44.00 L 12.00 44.88 L 13.00 45.00 L 13.00 45.88 L 14.00 46.00 L 14.00 46.88 L 16.00 47.00 L 16.00 47.88 L 19.00 48.00 L 19.00 48.88 L 23.00 49.00 L 23.00 49.88 L 65.00 50.00 L 65.00 50.88 L 67.00 51.00 L 67.00 51.88 L 69.00 52.00 L 69.00 52.88 L 70.00 53.00 L 70.00 53.88 L 71.00 54.00 L 71.00 54.88 L 72.00 55.00 L 72.00 56.88 L 73.00 57.00 L 73.00 59.88 L 74.00 60.00 L 73.88 66.00 L 73.00 66.00 L 73.00 67.88 L 73.88 67.88 L 74.00 66.88 L 75.88 66.88 L 76.00 65.88 L 76.88 65.88 L 77.00 64.88 L 77.88 64.88 L 78.00 63.88 L 78.88 63.88 L 79.00 62.88 L 79.88 62.88 L 80.00 60.88 L 80.88 60.88 L 81.00 59.88 L 81.88 59.88 L 81.88 54.00 L 80.88 53.88 L 80.88 52.00 L 79.88 51.88 L 79.88 50.00 L 78.88 49.88 L 78.88 49.00 L 77.88 48.88 L 77.88 48.00 L 76.88 47.88 L 76.88 47.00 L 75.88 46.88 L 75.88 46.00 L 74.88 45.88 L 74.88 45.00 L 73.88 44.88 L 73.88 44.00 L 71.88 43.88 L 71.88 43.00 L 70.88 42.88 L 70.88 42.00 L 67.88 41.88 L 67.88 41.00 L 62.88 40.88 L 62.88 40.00 L 28.00 40.00 L 27.88 41.00 L 25.88 40.88 L 25.88 40.00 L 20.88 39.88 L 20.88 39.00 L 19.88 38.88 L 19.88 38.00 L 17.88 37.88 L 17.88 37.00 L 16.88 36.88 L 16.88 36.00 L 15.88 35.88 L 15.88 34.00 L 14.88 33.88 L 14.88 33.00 L 13.88 32.88 L 13.88 30.00 L 12.88 29.88 L 13.00 23.88 L 13.88 23.88 L 14.00 20.88 L 14.88 20.88 L 15.00 19.88 L 15.88 19.88 L 16.00 17.88 L 16.88 17.88 L 17.00 16.88 L 17.88 16.88 L 18.00 15.88 L 19.88 15.88 L 20.00 14.88 L 21.88 14.88 L 22.00 13.88 L 103.88 13.88 L 104.00 12.88 L 104.88 12.88 L 105.00 11.88 L 106.88 11.88 L 107.00 10.88 L 107.88 10.88 L 108.00 9.88 L 108.88 9.88 L 109.00 8.88 L 110.88 8.88 L 111.00 7.88 L 112.88 7.88 L 113.00 6.88 L 113.88 6.88 L 114.00 5.88 L 116.88 5.88 Z"
    />
  </g>
</svg>